<?xml version="1.0" encoding="utf-8"?>
<!-- Generator: Adobe Illustrator 24.1.1, SVG Export Plug-In . SVG Version: 6.00 Build 0)  -->
<svg version="1.1" id="Layer_1" xmlns="http://www.w3.org/2000/svg" xmlns:xlink="http://www.w3.org/1999/xlink" x="0px" y="0px"
	 viewBox="0 0 401.8 185.3" style="enable-background:new 0 0 401.8 185.3;" xml:space="preserve">
<style type="text/css">
	.st0{fill:#F7CE5E;}
	.st1{fill:#A5B6C4;}
	.st2{fill:#D2D9E0;}
	.st3{fill:none;}
	.st4{fill:#FCFCFC;}
</style>
<polygon class="st0" points="245.7,111.4 114.2,111.4 114.2,175.8 245.7,175.8 277.1,143.7 "/>
<circle class="st1" cx="108.3" cy="50.9" r="13.1"/>
<circle class="st1" cx="169.9" cy="52" r="13.1"/>
<path class="st2" d="M68.5,66l-0.3,33.2l-9.7-0.1L58.8,67c0.1-9.8-3.2-17.6-12.9-19.1c-11.5-2.1-18.5,6.4-20.2,17.8
	c-0.6,4.8-0.9,9.5-0.9,14.3l-0.1,18.9L15,98.8l0.6-83l9.7,0.1L25,44.5c0,5.9-2.3,13.5-2.3,13.5h1.7c3.3-13.5,15-20.8,27.4-17.7
	C63.7,43.4,68.6,55.2,68.5,66z"/>
<path class="st1" d="M134,70.7c-0.1,14-7.7,30.3-27.5,30.2s-27.1-16.6-27-30.6S87.1,40,107,40.1S134.1,56.7,134,70.7z M125.4,70.6
	c0.1-10.7-4.8-22.9-18.4-23S88.1,59.7,88,70.4s4.9,22.9,18.6,23S125.3,81.3,125.4,70.6z"/>
<path class="st1" d="M197.1,71.1c-0.1,14-7.7,30.3-27.5,30.2s-27.2-16.6-27.1-30.6s7.6-30.3,27.5-30.2S197.2,57.2,197.1,71.1z
	 M188.5,71.1c0.1-10.7-4.8-22.9-18.5-23s-18.8,12.1-18.9,22.7s4.9,22.9,18.6,23S188.4,81.8,188.5,71.1z"/>
<path class="st2" d="M231.2,41c11.9,0.1,18,7,20.9,14.3h1.7c-1.1-4.5-1.6-9.2-1.6-13.9l0.2-24l9.7,0.1l-0.6,83l-9.7-0.1v-1.1
	c0.1-3.8,0.7-7.7,1.7-11.4h-1.7c-3,7.2-9.1,13.9-21.3,13.8c-17.7-0.1-24.9-15.6-24.8-30.5S213.4,40.9,231.2,41z M233.5,93
	c11.9,0.1,18.3-9.6,18.4-21.5s-6.4-21.6-18.1-21.7s-18.3,9.5-18.4,21.4S221.7,92.9,233.5,93z"/>
<path class="st2" d="M355.5,68l-0.3,33.2l-9.7-0.1l0.3-32.2c0.1-9.8-3.2-17.6-12.9-19.1c-11.5-2.1-18.5,6.4-20.2,17.8
	c-0.6,4.8-0.9,9.6-0.9,14.3l-0.1,18.9l-9.7-0.1l0.4-63h9.7v9.5c-0.2,4.3-1,8.6-2.4,12.8h1.7c3.3-13.5,15-20.8,27.4-17.7
	C350.7,45.4,355.6,57.2,355.5,68z"/>
<path class="st1" d="M125.8,83l10,20.5c0.8,1.6,3.5,1.7,4.3,0l9.2-21c0.6-1.2,0.3-2.7-0.9-3.4c-1.2-0.7-2.7-0.3-3.4,0.9l-9.2,21h4.3
	l-10-20.5c-0.7-1.2-2.2-1.6-3.4-0.9C125.6,80.4,125.2,81.8,125.8,83L125.8,83z"/>
<polygon class="st1" points="376.2,105.4 368.3,105.4 368.3,143.4 329.4,143.4 329.4,136.2 354.6,136.2 354.6,105.4 346.6,105.4 
	346.6,128.2 299.7,128.2 299.7,124.2 311.2,124.2 311.2,105.4 302.9,105.4 302.9,115.9 287,115.9 287,105.4 278.7,105.4 
	278.7,124.2 291.7,124.2 291.7,136.2 321.5,136.2 321.5,151.3 347.5,151.3 347.5,172 355.5,172 355.5,151.3 376.2,151.3 "/>
<path class="st1" d="M125.2,54.4h9.9c-0.7-6-4-11.3-9-14.7c-5.6-4-12.6-5.1-19.4-5.2c-6.5-0.2-13.2,0.8-19.7-0.6
	c-5.6-1.2-11.9-4.7-11.9-11.1c0-0.5-0.1-1-0.3-1.5h-9.3c-0.2,0.5-0.2,1-0.2,1.5c0.1,6.8,3.7,12.5,9.2,16.4c5.6,4,12.6,5.1,19.4,5.3
	c6.5,0.2,13.2-0.7,19.7,0.6C118.4,46.1,124,49.1,125.2,54.4z"/>
<path class="st1" d="M210.5,21.3h-9.3c-0.2,0.5-0.3,1-0.3,1.5c-0.1,5.7-5.4,9.4-10.4,10.8c-6.9,1.9-14.2,0.8-21.2,1
	c-6.7,0.2-13.8,1.3-19.4,5.2c-5,3.4-8.3,8.7-9,14.7H151c1-4.7,5.6-7.8,10.1-9c6.9-1.8,14.2-0.8,21.2-1c6.7-0.2,13.8-1.3,19.4-5.3
	c5.4-3.9,9.1-9.6,9.2-16.4C210.8,22.3,210.7,21.8,210.5,21.3z"/>
<path class="st2" d="M97.1,6"/>
<polygon class="st2" points="278.2,37.9 277.8,100.7 287.5,100.7 287.9,37.9 283,37.9 "/>
<polygon class="st2" points="287.9,37.8 287.9,37.9 287.9,37.9 287.9,37.9 "/>
<polygon class="st2" points="278.2,37.8 278.1,37.9 278.2,37.9 "/>
<polygon class="st2" points="287.9,37.8 285.5,36.6 283,35.3 280.6,36.6 278.2,37.8 278.2,37.8 278.2,37.9 283,37.9 287.9,37.9 
	287.9,37.9 "/>
<polygon class="st2" points="377.2,37.8 374.8,36.6 372.4,35.3 369.9,36.6 367.5,37.8 367.5,37.8 367.5,37.9 372.4,37.9 377.2,37.9 
	377.2,37.9 "/>
<polygon class="st2" points="367.5,37.9 367.2,100.7 376.9,100.7 377.2,37.9 372.4,37.9 "/>
<polygon class="st2" points="377.2,37.8 377.2,37.9 377.2,37.9 377.3,37.9 "/>
<polygon class="st2" points="367.5,37.8 367.4,37.9 367.5,37.9 "/>
<polygon class="st2" points="312.1,37.8 309.7,36.6 307.3,35.3 304.8,36.6 302.4,37.8 302.4,37.8 302.4,37.9 307.3,37.9 312.1,37.9 
	312.1,37.9 "/>
<circle class="st2" cx="283" cy="25.7" r="4.4"/>
<circle class="st2" cx="372.2" cy="25.7" r="4.4"/>
<path class="st2" d="M283,25.7"/>
<path class="st1" d="M126.7,79.7"/>
<line class="st3" x1="128.3" y1="81" x2="147.2" y2="81"/>
<g>
	<path class="st4" d="M153.2,152.6l11.3-30h7.1l-15.5,42.2h-10l-15.5-42.2h7.1l11.3,30c0.7,1.9,1.2,3.8,1.6,5.8h1.1
		C152.1,156.4,152.5,154.5,153.2,152.6z"/>
	<path class="st4" d="M187.7,125.3v39.4h-7.1v-34.2c0-0.4-0.1-0.8-0.4-1.1c-0.3-0.3-0.7-0.5-1.1-0.5h-3.5v-6.4h9.3
		c0.8,0,1.5,0.3,2,0.8C187.4,123.9,187.7,124.6,187.7,125.3z"/>
	<path class="st4" d="M220.9,129.6v-1.1h-23.7v-5.9H229v6.1c-8,9.5-14.7,17.8-20.2,24.9l-0.9,1c-0.9,0.9-1.6,1.6-2.3,2.2
		c-0.7,0.6-1.2,0.9-1.7,1v1.1H229v5.9h-33.2v-6.1c6.6-8.4,13.3-16.7,19.9-25.1c1-1.2,1.9-2.1,2.8-2.8
		C219.3,130.1,220.1,129.7,220.9,129.6z"/>
</g>
</svg>
