<svg id="Layer_1" data-name="Layer 1" xmlns="http://www.w3.org/2000/svg" viewBox="0 0 362.38 156.26"><defs><style>.cls-1{fill:#a5b6c4;}.cls-2{fill:#d2d9e0;}</style></defs><circle class="cls-1" cx="93.44" cy="35.17" r="13.13"/><circle class="cls-1" cx="154.98" cy="36.19" r="13.13"/><path class="cls-2" d="M86.27,82,86,115.19l-9.72-.07L76.54,83c.07-9.85-3.2-17.58-12.92-19.07-11.49-2.1-18.54,6.39-20.17,17.76A135.59,135.59,0,0,0,42.52,96l-.13,18.86-9.73-.07.59-83,9.73.07-.21,28.7c0,5.93-2.35,13.5-2.35,13.5h1.66c3.3-13.49,15-20.77,27.41-17.71C81.45,59.41,86.34,71.19,86.27,82Z" transform="translate(-32.66 -31.79)"/><path class="cls-1" d="M151.82,86.71c-.1,14-7.69,30.31-27.49,30.17S97.17,100.32,97.27,86.33,104.83,56,124.76,56.16,151.92,72.72,151.82,86.71Zm-8.66-.06c.08-10.67-4.81-22.92-18.45-23S105.88,75.71,105.8,86.39s4.94,22.92,18.58,23S143.09,97.33,143.16,86.65Z" transform="translate(-32.66 -31.79)"/><path class="cls-1" d="M214.92,87.16c-.1,14-7.69,30.31-27.5,30.17s-27.16-16.56-27.06-30.56,7.57-30.31,27.49-30.16S215,73.17,214.92,87.16Zm-8.66-.06c.08-10.67-4.82-22.93-18.46-23S169,76.16,168.9,86.83s4.94,22.93,18.58,23S206.18,97.77,206.26,87.1Z" transform="translate(-32.66 -31.79)"/><path class="cls-2" d="M248.93,57c11.86.08,18,7,20.9,14.26h1.66a59.34,59.34,0,0,1-1.57-13.88l.17-24,9.73.07-.59,83-9.72-.07V115.3a44.62,44.62,0,0,1,1.74-11.37h-1.66c-3,7.21-9.11,13.93-21.32,13.84-17.68-.12-24.92-15.59-24.81-30.54S231.14,56.91,248.93,57Zm2.36,52c11.86.08,18.34-9.6,18.42-21.46s-6.37-21.63-18.11-21.71-18.33,9.47-18.42,21.45S239.43,108.92,251.29,109Z" transform="translate(-32.66 -31.79)"/><path class="cls-2" d="M373.28,84,373,117.23l-9.72-.07L363.54,85c.07-9.84-3.19-17.57-12.91-19.06-11.49-2.1-18.55,6.39-20.17,17.76a135.4,135.4,0,0,0-.93,14.35l-.13,18.86-9.73-.07.41-63,9.73,0,0,9.48a49.11,49.11,0,0,1-2.35,12.79h1.66c3.3-13.5,15-20.77,27.41-17.71C368.46,61.45,373.35,73.22,373.28,84Z" transform="translate(-32.66 -31.79)"/><path class="cls-1" d="M143.6,99.05l10,20.54c.77,1.57,3.54,1.67,4.27,0l9.22-21a2.55,2.55,0,0,0-.89-3.39,2.49,2.49,0,0,0-3.38.89l-9.22,21h4.27l-10-20.55a2.49,2.49,0,0,0-3.38-.88,2.53,2.53,0,0,0-.89,3.38Z" transform="translate(-32.66 -31.79)"/><polygon class="cls-1" points="361.28 89.63 353.4 89.63 353.4 127.6 314.53 127.6 314.53 120.45 339.73 120.45 339.73 89.63 331.73 89.63 331.73 112.45 284.83 112.45 284.83 108.43 296.28 108.43 296.28 89.63 288.01 89.63 288.01 100.16 272.1 100.16 272.1 89.63 263.83 89.63 263.83 108.43 276.83 108.43 276.83 120.45 306.65 120.45 306.65 135.48 332.57 135.48 332.57 156.26 340.57 156.26 340.57 135.48 361.28 135.48 361.28 89.63"/><path class="cls-1" d="M142.94,70.45h9.87a20.71,20.71,0,0,0-9-14.67c-5.61-4-12.65-5.06-19.38-5.24-6.51-.17-13.24.75-19.67-.61-5.55-1.18-11.86-4.72-11.94-11.13a4.77,4.77,0,0,0-.33-1.52H83.24A4.52,4.52,0,0,0,83,38.8c.08,6.77,3.72,12.53,9.15,16.39,5.61,4,12.64,5.11,19.37,5.29,6.51.18,13.24-.74,19.67.6C136.16,62.13,141.82,65.13,142.94,70.45Z" transform="translate(-32.66 -31.79)"/><path class="cls-1" d="M228.32,37.28h-9.27a4.77,4.77,0,0,0-.32,1.52c-.06,5.72-5.36,9.4-10.39,10.76-6.88,1.86-14.19.8-21.22,1-6.71.18-13.8,1.26-19.38,5.24a20.78,20.78,0,0,0-9,14.67H168.8c1-4.69,5.59-7.81,10.06-9,6.89-1.84,14.2-.77,21.23-1,6.71-.18,13.79-1.28,19.36-5.29,5.41-3.89,9.1-9.6,9.16-16.39A4.78,4.78,0,0,0,228.32,37.28Z" transform="translate(-32.66 -31.79)"/><path class="cls-2" d="M114.88,22" transform="translate(-32.66 -31.79)"/><polygon class="cls-2" points="263.27 22.08 262.94 84.89 272.66 84.96 272.99 22.08 268.13 22.08 263.27 22.08"/><polygon class="cls-2" points="272.99 22.04 272.99 22.08 272.99 22.08 273.04 22.08 272.99 22.04"/><polygon class="cls-2" points="263.27 22.05 263.22 22.08 263.27 22.08 263.27 22.05 263.27 22.05"/><polygon class="cls-2" points="272.99 22.05 270.59 20.8 268.13 19.53 265.68 20.8 263.27 22.05 263.27 22.06 263.27 22.08 268.13 22.08 272.99 22.08 272.99 22.08 272.99 22.05"/><polygon class="cls-2" points="362.33 22.05 359.92 20.8 357.47 19.53 355.01 20.8 352.6 22.05 352.6 22.06 352.6 22.08 357.47 22.08 362.33 22.08 362.33 22.08 362.33 22.05"/><polygon class="cls-2" points="352.6 22.08 352.27 84.89 361.99 84.96 362.33 22.08 357.47 22.08 352.6 22.08"/><polygon class="cls-2" points="362.33 22.04 362.33 22.08 362.33 22.08 362.38 22.08 362.33 22.04"/><polygon class="cls-2" points="352.6 22.05 352.56 22.08 352.6 22.08 352.6 22.05 352.6 22.05"/><polygon class="cls-2" points="297.24 22.05 294.84 20.8 292.38 19.53 289.93 20.8 287.52 22.05 287.52 22.06 287.52 22.08 292.38 22.08 297.24 22.08 297.24 22.08 297.24 22.05"/><circle class="cls-2" cx="268.13" cy="9.9" r="4.41"/><circle class="cls-2" cx="357.3" cy="9.9" r="4.41"/><path class="cls-2" d="M300.79,41.69" transform="translate(-32.66 -31.79)"/><path class="cls-1" d="M144.49,95.67" transform="translate(-32.66 -31.79)"/><line class="cls-1" x1="113.37" y1="65.27" x2="132.33" y2="65.27"/></svg>