<svg id="Layer_1" data-name="Layer 1" xmlns="http://www.w3.org/2000/svg" viewBox="0 0 145.66 150.77"><defs><style>.cls-1{fill:#0f0c0d;}</style></defs><circle class="cls-1" cx="43.15" cy="29.68" r="13.13"/><circle class="cls-1" cx="104.69" cy="30.69" r="13.13"/><path class="cls-1" d="M81.6,64.76c-.1,14-7.68,30.31-27.49,30.17S27,78.37,27.05,64.38s7.56-30.31,27.49-30.17S81.7,50.77,81.6,64.76ZM73,64.7C73,54,68.13,41.78,54.49,41.68S35.66,53.76,35.59,64.44s4.93,22.92,18.57,23S72.87,75.38,73,64.7Z" transform="translate(-12.73 -15.33)"/><path class="cls-1" d="M144.7,65.21c-.1,14-7.69,30.31-27.5,30.17S90,78.82,90.14,64.82s7.57-30.31,27.49-30.16S144.8,51.22,144.7,65.21ZM136,65.15c.08-10.67-4.82-22.93-18.46-23S98.76,54.21,98.68,64.88s4.94,22.93,18.58,23S136,75.82,136,65.15Z" transform="translate(-12.73 -15.33)"/><path class="cls-1" d="M73.38,77.1l10,20.54c.77,1.57,3.54,1.67,4.27,0l9.22-21A2.54,2.54,0,0,0,96,73.28a2.49,2.49,0,0,0-3.38.89l-9.22,21h4.27l-10-20.55a2.5,2.5,0,0,0-3.38-.89,2.54,2.54,0,0,0-.89,3.39Z" transform="translate(-12.73 -15.33)"/><polygon class="cls-1" points="121.13 84.13 113.25 84.13 113.25 122.1 74.38 122.1 74.38 114.96 99.59 114.96 99.59 84.13 91.59 84.13 91.59 106.96 44.68 106.96 44.68 102.94 56.13 102.94 56.13 84.13 47.87 84.13 47.87 94.67 31.95 94.67 31.95 84.13 23.68 84.13 23.68 102.94 36.68 102.94 36.68 114.96 66.5 114.96 66.5 129.98 92.42 129.98 92.42 150.77 100.42 150.77 100.42 129.98 121.13 129.98 121.13 84.13"/><path class="cls-1" d="M72.72,48.5h9.87a20.71,20.71,0,0,0-9-14.67C68,29.87,61,28.77,54.22,28.59c-6.51-.17-13.24.75-19.66-.61-5.56-1.18-11.87-4.72-12-11.13a4.77,4.77,0,0,0-.33-1.52H13a4.52,4.52,0,0,0-.29,1.52c.09,6.76,3.73,12.53,9.15,16.39,5.61,4,12.64,5.11,19.37,5.29,6.51.18,13.24-.74,19.67.6C65.94,40.18,71.6,43.18,72.72,48.5Z" transform="translate(-12.73 -15.33)"/><path class="cls-1" d="M158.1,15.33h-9.27a4.77,4.77,0,0,0-.32,1.52c0,5.72-5.36,9.4-10.39,10.76-6.88,1.86-14.19.8-21.22,1-6.71.18-13.8,1.26-19.38,5.24a20.82,20.82,0,0,0-9,14.67h10c1-4.69,5.59-7.81,10.06-9,6.89-1.84,14.2-.77,21.23-1,6.71-.18,13.79-1.28,19.36-5.29,5.41-3.89,9.1-9.6,9.16-16.39A4.78,4.78,0,0,0,158.1,15.33Z" transform="translate(-12.73 -15.33)"/><path class="cls-1" d="M44.66,0" transform="translate(-12.73 -15.33)"/><path class="cls-1" d="M74.27,73.71" transform="translate(-12.73 -15.33)"/><line class="cls-1" x1="63.09" y1="59.78" x2="82.04" y2="59.78"/></svg>